# xmcd
#
# Track frame offsets:
#	150
#	18503
#	38283
#	53140
#	72935
#	95950
#	118710
#	138740
#	155230
#	181198
#
# Disc length: 2722 seconds
#
# Revision: 2
# Processed by: cddbd v1.5.2PL0 Copyright (c) Steve Scherf et al.
# Submitted via: EZCDAudioConverter 8.0.2.1
#
DISCID=8b0aa00a
DTITLE=Don Hồ, Kenny, Duy Hạnh, Sỹ Đan - Tình Đau
DYEAR=1995
DGENRE=Miscellaneous
TTITLE0=Don Hồ - Mal De Toi (Tình Đau)
TTITLE1=Duy Hạnh - Sad Without You (Giờ quá xa người ơi)
TTITLE2=Kenny - Mandoley (Khúc hát yêu đời)
TTITLE3=Duy Hạnh - True Love (Hạnh phúc nửa vời)
TTITLE4=Sỹ Đan - Nhạc tình xanh
TTITLE5=Don Hồ - Knife (Tình là cơn mơ)
TTITLE6=Sỹ Đan - What Is Love (Tình yêu là gì)
TTITLE7=Duy Hạnh - I'm Sorry Love (Chuyện tình tan vỡ)
TTITLE8=Sỹ Đan - Send Me An Angel (Cánh tay thiên thần)
TTITLE9=Sỹ Đan - À Toi (Này em)
EXTD=
EXTT0=
EXTT1=
EXTT2=
EXTT3=
EXTT4=
EXTT5=
EXTT6=
EXTT7=
EXTT8=
EXTT9=
PLAYORDER=
